<?xml version="1.0" standalone="no"?>
<!DOCTYPE svg PUBLIC "-//W3C//DTD SVG 20010904//EN"
 "http://www.w3.org/TR/2001/REC-SVG-20010904/DTD/svg10.dtd">
<svg version="1.0" xmlns="http://www.w3.org/2000/svg"
 width="500.000000pt" height="500.000000pt" viewBox="0 0 500.000000 500.000000"
 preserveAspectRatio="xMidYMid meet">

<g transform="translate(0.000000,500.000000) scale(0.100000,-0.100000)"
fill="#000000" stroke="none">
<path d="M1505 4186 c-151 -49 -172 -65 -472 -358 -100 -98 -186 -178 -191
-178 -5 0 -12 19 -16 42 -9 55 -36 98 -78 123 -27 16 -50 20 -134 19 -138 -1
-232 -30 -291 -89 -39 -38 -43 -47 -43 -90 0 -61 24 -109 80 -163 39 -38 124
-86 184 -106 17 -6 -2 -29 -121 -149 -77 -78 -155 -164 -173 -190 -46 -70
-105 -200 -132 -292 -22 -78 -23 -91 -23 -505 0 -420 0 -426 23 -490 26 -70
50 -114 94 -171 27 -36 28 -40 28 -166 0 -160 15 -217 73 -280 71 -78 95 -83
350 -83 211 0 224 1 272 24 52 24 109 79 127 125 6 14 13 55 17 91 l6 65 1418
3 1417 2 0 -43 c0 -107 53 -197 142 -241 51 -26 55 -26 275 -26 240 0 261 4
330 56 18 13 45 46 60 72 27 45 28 53 32 207 l3 160 29 33 c43 48 85 138 108
230 19 74 21 110 21 429 0 332 -1 353 -24 454 -52 230 -138 373 -334 558 -108
101 -124 121 -107 126 165 53 290 186 271 289 -18 98 -151 160 -341 160 -127
0 -187 -37 -201 -124 -3 -21 -10 -43 -14 -51 -6 -9 -62 39 -205 177 -281 272
-312 295 -460 350 -47 18 -101 19 -990 21 l-940 2 -70 -23z m1985 -263 c45
-23 96 -63 165 -130 334 -324 485 -472 485 -477 0 -3 -738 -6 -1640 -6 -902 0
-1639 3 -1639 8 2 10 556 543 594 570 17 13 58 34 91 47 l59 25 910 -3 910 -2
65 -32z m-2860 -1014 c250 -82 550 -311 550 -419 0 -36 -37 -68 -107 -92 -50
-18 -92 -21 -300 -25 -211 -5 -248 -3 -297 12 -116 37 -186 136 -186 264 0
132 69 228 193 267 58 18 75 17 147 -7z m3901 4 c107 -34 189 -149 189 -263 0
-97 -58 -195 -148 -248 l-47 -27 -260 0 c-223 0 -268 3 -320 19 -151 46 -160
113 -32 238 132 130 429 292 543 297 12 1 46 -7 75 -16z m-921 -372 c0 -54
-30 -175 -59 -237 -36 -78 -91 -139 -153 -170 l-47 -24 -848 0 c-810 0 -850 1
-890 19 -114 52 -213 233 -213 390 l0 51 1105 0 1105 0 0 -29z m-2571 -582
c37 -41 112 -127 169 -191 56 -64 102 -119 102 -123 0 -3 -150 -5 -332 -3
l-333 3 -62 32 c-150 79 -206 185 -158 300 28 67 13 64 293 61 l256 -3 65 -76z
m3522 51 c11 -14 24 -50 31 -81 11 -53 10 -60 -16 -112 -31 -65 -92 -114 -185
-153 -60 -24 -64 -24 -377 -24 -225 0 -315 3 -312 11 2 6 78 96 168 200 l164
189 255 -2 254 -3 18 -25z m-1045 -132 c-14 -89 -68 -162 -151 -206 l-50 -27
-815 0 -815 0 -42 23 c-84 44 -141 122 -158 215 l-7 37 1022 0 1023 0 -7 -42z"/>
</g>
</svg>
